<svg width="2314" height="2471" viewBox="0 0 2314 2471" fill="none" xmlns="http://www.w3.org/2000/svg">
<path d="M448.658 2122.47C564.79 2123.91 606.702 1878.41 613.141 1755.48L914.169 2079.2C763.704 2181.16 541.134 2150.53 448.658 2122.47Z" fill="#0C2669"/>
<path d="M880.914 2063.55L870.326 2104.39C751.672 2161.75 604.518 2154.87 508.07 2136.71C567.322 2098.38 645.767 2001.05 648.875 1809.97L880.914 2063.55Z" fill="#061239"/>
<path d="M1061.51 2210.3C1049.52 2152.01 980.966 2111.7 948.187 2098.82C907.333 2064.77 829.877 2021.06 846.878 2118.65C863.879 2216.23 912.722 2260.75 935.019 2270.82L923.944 2186.23L1009.87 2255.99C1010.16 2220.71 984.994 2183.55 972.372 2169.37L1061.51 2210.3Z" fill="#F88D41"/>
<path d="M927.122 2082.92C934.694 2088.08 941.877 2093.57 948.186 2098.83C980.966 2111.7 1049.52 2152.02 1061.51 2210.3L972.372 2169.38C984.993 2183.55 1010.16 2220.71 1009.87 2255.99L923.944 2186.23L935.019 2270.82C927.234 2267.31 916.215 2259.59 904.444 2246.89C909.283 2217.28 910.88 2181.39 901.31 2151.27C889.505 2114.1 908.02 2093.02 927.122 2082.92Z" fill="#915354"/>
<path d="M1241.58 2212.78C1222.82 2156.31 1262.03 2087.11 1283.98 2059.58C1302.33 2009.66 1347.56 1933.08 1381.63 2026.09C1415.7 2119.1 1395.66 2182.08 1381.38 2201.95L1348.68 2123.15L1309.14 2226.53C1291.25 2196.12 1294.46 2151.35 1298.31 2132.77L1241.58 2212.78Z" fill="#915354"/>
<path d="M1080.56 362.938C966.96 473.714 778.915 811.283 669.634 1097.32C531.198 1459.66 539.68 1975.06 884.141 2096.86C1314.72 2249.1 1629.99 1862.84 1523.3 1555.48C1416.62 1248.12 1500.66 808.384 1623.2 659.082C1745.73 509.781 1774.39 504.69 1832.15 405.356C1889.91 306.023 1845.34 101.074 1618.18 72.3914C1391.02 43.7084 1222.56 224.467 1080.56 362.938Z" fill="#EBE3E3"/>
<path d="M1377.17 119.521C1450.49 99.2648 1525.77 93.692 1579.01 95.4308L1582.09 95.5414L1582.23 95.5469L1582.35 95.6221L1851.14 270.913C1860.4 320.642 1852.84 369.774 1832.15 405.356C1774.39 504.69 1745.73 509.781 1623.2 659.082C1500.66 808.383 1416.61 1248.12 1523.3 1555.48C1573.87 1701.19 1529.63 1864.62 1423.22 1980.01C1428.25 1971.76 1433.1 1963.18 1437.72 1954.28C1492.29 1849.24 1516.06 1698.85 1454.73 1494.67C1332.12 1086.51 1498.6 766.936 1597.63 657.577C1545.87 630.259 1466.88 585.897 1397.39 541.184C1362.51 518.746 1330.02 496.213 1304.55 475.699C1291.82 465.442 1280.84 455.683 1272.19 446.688C1263.55 437.699 1257.22 429.447 1253.81 422.203L1253.53 421.588L1254.2 421.495C1345.5 408.929 1406.07 377.678 1433.79 342.608C1447.64 325.082 1453.27 306.628 1450.49 289.068C1447.71 271.507 1436.49 254.748 1416.48 240.649C1400.53 229.421 1379.55 226.282 1355.96 228.697C1332.38 231.112 1306.26 239.073 1280.11 249.975C1227.8 271.778 1175.46 305.303 1143.24 329.539L1142.21 330.317L1142.45 329.046C1144.89 316.264 1148.29 304.141 1152.56 292.645C1220.16 227.702 1294.07 162.543 1377.17 119.521Z" fill="#94A1DC"/>
<path d="M782.487 838.874C797.739 1376.27 705.761 1679.07 625.847 1815.19C554.662 1603.4 584.114 1321.15 669.633 1097.32C701.745 1013.26 740.66 924.763 782.487 838.874ZM1080.56 362.937C1222.56 224.467 1391.01 43.7078 1618.18 72.3908C1821.04 98.0047 1878.28 264.18 1847.07 370.186C1839.3 365.616 1830.17 362.173 1819.5 360.086C1692.22 335.18 1719.41 314.953 1665.69 207.19C1571.12 64.8105 1235.49 178.038 1149.4 345.529C1090.67 459.812 1028.11 486.23 955.415 527.089C1001.34 455.584 1044.66 397.939 1080.56 362.937Z" fill="#0C2669"/>
<path d="M1080.56 362.937C1222.56 224.467 1391.01 43.7077 1618.18 72.3907C1821.03 98.0047 1878.28 264.18 1847.07 370.186C1839.3 365.616 1830.17 362.173 1819.5 360.086C1692.22 335.18 1719.41 314.953 1665.69 207.19C1571.12 64.8107 1235.49 178.038 1149.4 345.528C1090.67 459.811 1028.11 486.23 955.415 527.089C1001.34 455.584 1044.66 397.939 1080.56 362.937Z" fill="#061239"/>
<circle cx="1451.8" cy="390.285" r="43.5" transform="rotate(-15 1451.8 390.285)" fill="#061239"/>
<circle cx="1631.5" cy="531.591" r="43.5" transform="rotate(-15 1631.5 531.591)" fill="#061239"/>
<path d="M1254.02 421.022C1287.99 467.307 1395.38 540.196 1553.18 461.471C1566.38 482.617 1577.55 531.465 1557.65 600.719C1559.89 606.789 1563.11 612.221 1567.66 615.987C1582.03 627.874 1595.27 651.383 1600.09 661.651C1583.48 677.007 1545.3 682.986 1521.94 684.54C1511.99 702.352 1500.13 720.977 1486.07 740.343C1485.79 714.19 1471.09 651.596 1414.51 610.437C1343.78 558.99 1258.49 528.526 1254.02 421.022Z" fill="#F88D41"/>
<path d="M1255.97 423.602C1291.96 469.937 1398.28 538.747 1553.18 461.471C1566.38 482.617 1577.55 531.465 1557.65 600.719C1559.89 606.789 1563.11 612.221 1567.66 615.987C1582.03 627.874 1595.27 651.382 1600.09 661.651C1599.47 662.222 1598.82 662.778 1598.14 663.323C1580.37 657.774 1555.03 646.254 1540.77 639.241C1534.15 661.974 1514.97 696.112 1500.1 720.18C1496.79 725.159 1493.32 730.191 1489.71 735.276C1521.46 660.672 1563.93 519.118 1490.06 523.418C1346.62 543.77 1277.16 470.811 1255.97 423.602Z" fill="#915354"/>
<path d="M1320.49 159.556C1408.08 101.088 1505.66 63.7277 1617.49 77.848C1729.31 91.9669 1795.58 149.286 1827.05 214.763C1858.68 280.57 1855.24 354.694 1827.39 402.592C1798.76 451.832 1777.42 477.62 1747.91 509.762C1718.28 542.04 1680.34 580.791 1618.95 655.593C1556.72 731.414 1504.89 879.883 1481.84 1047.26C1458.77 1214.82 1464.39 1402.53 1518.11 1557.29C1623.22 1860.11 1312.39 2242.44 885.974 2091.67C716.431 2031.72 628.959 1874.79 601.243 1686.49C573.529 1498.21 605.831 1279.73 674.772 1099.28C729.307 956.537 803.522 800.878 878.279 667.089C952.541 534.186 1027.04 423.408 1083.08 368.17L1084.4 366.876C1155.58 297.465 1232.76 218.116 1320.49 159.556Z" stroke="#0C2669" stroke-width="11"/>
</svg>
